<svg width="677" height="197" viewBox="0 0 677 197" fill="none" xmlns="http://www.w3.org/2000/svg">
<path d="M135.542 183.576C275.627 183.575 415.315 183.575 555.273 183.575C555.273 187.684 555.273 191.717 555.273 196.023C406.192 196.023 256.923 196.023 107.459 196.023C107.459 192.039 107.459 188.007 107.459 183.576C116.715 183.576 125.93 183.576 135.542 183.576Z" fill="#F5F5F5"/>
<path d="M583.166 0.878771C586.277 0.447662 585.699 2.4244 585.701 3.9004C585.716 16.0754 585.71 28.2505 585.71 40.4255C585.71 63.1876 585.71 85.9497 585.71 108.712C585.71 110.006 585.71 111.3 585.71 112.755C580.072 112.755 574.722 112.755 569.102 112.755C568.957 109.493 568.813 106.263 568.651 102.611C566.675 104.448 564.992 106.166 563.155 107.697C548.956 119.531 522.093 116.674 512.089 97.269C503.173 79.974 503.104 62.3763 513.644 45.584C525.36 26.9178 554.465 26.3447 567.18 41.5214C567.18 27.8848 567.18 14.6585 567.18 0.877226C572.603 0.877226 577.693 0.877226 583.166 0.878771ZM524.472 73.482C524.776 76.3562 524.835 79.2828 525.431 82.0952C527.378 91.2803 534.694 97.9427 543.2 98.5369C554.104 99.2987 562.018 94.8323 565.506 85.4812C568.55 77.3169 568.66 68.8625 565.663 60.7183C562.491 52.0979 555.763 47.4875 546.662 47.1497C538.324 46.8402 531.075 49.8267 527.656 57.9098C525.723 62.4773 525.476 67.7587 524.472 73.482Z" fill="#F5F5F5" fill-opacity="0.960784"/>
<path d="M377.917 99.1097C381.255 103.66 384.401 108 387.919 112.854C380.717 112.854 374.039 112.945 367.368 112.756C366.378 112.727 365.173 111.56 364.494 110.613C356.824 99.9159 349.237 89.1591 341.086 77.6523C338.297 80.6933 335.562 83.503 333.068 86.5137C332.431 87.2835 332.374 88.6873 332.365 89.8022C332.308 97.3362 332.336 104.871 332.336 112.662C326.365 112.662 320.494 112.662 314.394 112.662C314.394 75.7221 314.394 38.7093 314.394 1.51953C320.247 1.51953 326.111 1.51953 332.281 1.51953C332.281 22.4394 332.281 43.2734 332.281 64.8587C340.51 56.6217 348.723 49.3457 355.765 41.071C362.042 33.6945 368.961 29.9516 378.635 31.6419C380.79 32.0184 383.066 31.6971 386.055 31.6971C375.188 43.4009 364.74 54.6549 354.139 66.0737C362.072 77.116 369.898 88.0074 377.917 99.1097Z" fill="#F5F5F5"/>
<path d="M145.057 47.8261C150.549 36.3914 160.228 31.9855 171.857 31.0483C179.215 30.4554 186.551 30.5777 193.674 33.2497C205.078 37.5282 211.568 46.2224 211.792 58.283C212.103 75.0917 212.307 91.9024 212.553 108.712C212.572 110.011 212.556 111.309 212.556 112.768C206.654 112.768 201.038 112.768 195.293 112.768C195.028 110.447 194.767 108.162 194.481 105.654C181.694 115.21 168.166 117.45 153.78 111.298C143.782 107.023 139.633 98.8502 140.307 88.1272C140.894 78.8006 145.99 72.3405 154.51 69.7461C162.454 67.3274 170.893 66.4449 179.166 65.2404C183.975 64.5403 188.885 64.5374 193.729 64.2221C195.358 55.8515 192.154 48.9169 185.184 47.0113C176.005 44.5018 163.899 45.7265 159.865 57.2271C157.109 57.2271 154.235 57.2271 151.362 57.2271C148.601 57.2271 145.839 57.2271 142.673 57.2271C143.525 53.9308 144.274 51.0326 145.057 47.8261ZM179.681 77.8866C174.457 78.9338 169.06 79.4761 164.061 81.1836C159.853 82.621 158.066 86.4639 158.561 91.0827C159.007 95.246 161.557 97.933 165.259 98.9561C168.614 99.8832 172.296 100.351 175.751 100.055C187.548 99.0429 196.483 91.0976 193.951 77.8857C189.375 77.8857 184.913 77.8857 179.681 77.8866Z" fill="#F5F5F5"/>
<path d="M615.936 129.067C618.329 127.3 620.923 126.054 622.449 124.009C627.069 117.819 627.57 111.703 624.183 104.01C614.081 81.0677 605.062 57.6481 595.627 34.4123C595.441 33.9557 595.337 33.4662 595.129 32.7739C601.672 32.7739 607.965 32.7739 614.679 32.7739C621.78 52.7222 628.929 72.8073 636.345 93.6409C643.768 72.9146 650.966 52.8149 658.172 32.6938C664.4 32.6938 670.471 32.6938 676.967 32.6938C673.218 42.3477 669.58 51.8183 665.867 61.259C657.693 82.0366 649.511 102.811 641.253 123.554C640.142 126.345 638.705 129.031 637.187 131.629C630.322 143.373 618.273 148.174 604.92 144.481C604.92 139.802 604.92 135.078 604.92 130.409C608.604 130.001 612.127 129.612 615.936 129.067Z" fill="#F5F5F5"/>
<path d="M39.4744 1.57897C55.9663 1.57886 72.0612 1.57886 88.3053 1.57886C88.3053 7.30991 88.3053 12.6731 88.3053 18.3048C76.6202 18.3048 65.0431 18.3048 53.1375 18.3048C53.1375 49.8676 53.1375 81.166 53.1375 112.692C46.8017 112.692 40.7898 112.692 34.461 112.692C34.461 81.5087 34.461 50.2365 34.461 18.686C22.8517 18.686 11.5475 18.686 0 18.686C0 12.9312 0 7.44726 0 1.57909C12.9884 1.57909 26.0329 1.57909 39.4744 1.57897Z" fill="#F5F5F5"/>
<path d="M414.322 76.2954C414.322 56.8627 414.322 37.8273 414.322 18.4137C403.245 18.4137 392.35 18.4137 381.302 18.4137C381.302 12.6721 381.302 7.30861 381.302 1.75854C409.625 1.75854 437.842 1.75854 466.179 1.75854C466.179 7.28254 466.179 12.6469 466.179 18.2814C455.258 18.2814 444.473 18.2814 433.377 18.2814C433.377 49.8306 433.377 81.1126 433.377 112.658C426.948 112.658 420.827 112.658 414.322 112.658C414.322 100.692 414.322 88.6921 414.322 76.2954Z" fill="#F5F5F5"/>
<path d="M242.72 77.598C245.244 96.9647 262.993 102.363 275.653 96.2521C280.821 93.7575 283.294 89.3093 285.128 84.2534C290.773 84.2534 296.304 84.2534 302.056 84.2534C302.998 90.2965 300.95 95.4671 297.268 99.8948C289.558 109.166 279.565 113.913 267.461 114.511C256.091 115.073 245.787 112.582 237.126 104.9C229.283 97.9441 225.094 89.1268 224.462 78.6621C223.893 69.2359 224.505 59.9576 229.217 51.4886C236.367 38.6396 247.407 31.9036 262.051 30.9505C272.6 30.2639 282.455 32.0448 290.987 38.7637C297.858 44.1748 301.549 51.2855 302.42 60.1976C296.592 60.1976 290.952 60.1976 285.249 60.1976C278.061 46.8061 263.357 42.9637 251.549 51.5708C245.85 55.7256 243.489 61.7671 242.775 68.5104C242.471 71.3883 242.717 74.3246 242.72 77.598Z" fill="#F5F5F5"/>
<path d="M111.839 55.7588C106.431 61.1137 104.743 67.6535 104.648 74.6546C104.494 86.0311 104.59 97.411 104.581 108.79C104.58 110.081 104.581 111.372 104.581 112.782C98.3875 112.782 92.5161 112.782 86.4797 112.782C86.4797 85.954 86.4797 59.2685 86.4797 32.2821C92.0584 32.2821 97.6568 32.2821 103.632 32.2821C103.632 36.656 103.632 41.171 103.632 46.6979C107.369 40.4028 111.789 36.3299 117.537 33.7706C123.177 31.2596 129.058 30.5351 135.656 31.2339C135.656 37.2731 135.656 43.1733 135.656 49.4356C127.398 48.6496 118.75 48.4982 111.839 55.7588Z" fill="#F5F5F5" fill-opacity="0.960784"/>
<path d="M493.612 110.362C493.017 111.471 492.44 112.797 491.824 112.815C486.447 112.98 481.062 112.91 475.516 112.91C475.516 86.1229 475.516 59.5904 475.516 32.8406C481.391 32.8406 487.266 32.8406 493.612 32.8406C493.612 58.5051 493.612 84.2394 493.612 110.362Z" fill="#F5F5F5"/>
<path d="M474.643 14.7338C473.125 8.496 474.897 4.0083 479.694 1.44061C484.346 -1.04913 489.937 -0.255538 493.405 3.3866C497.351 7.53203 497.11 14.7484 492.896 18.6156C488.251 22.8787 480.811 22.5904 476.697 17.9351C475.929 17.0657 475.376 16.0054 474.643 14.7338Z" fill="#F5F5F5"/>
</svg>
